HIERARCHY
ROOT Hips
{
	OFFSET 0.000000 100.481300 0.000000
	CHANNELS 6 Xposition Yposition Zposition Xrotation Yrotation Zrotation
	JOINT Spine
	{
		OFFSET -0.279200 12.230698 -2.892100
		CHANNELS 3 Xrotation Yrotation Zrotation
		JOINT Spine1
		{
			OFFSET -0.325700 14.269203 -3.374200
			CHANNELS 3 Xrotation Yrotation Zrotation
			JOINT Spine2
			{
				OFFSET -0.372300 16.307602 -0.352600
				CHANNELS 3 Xrotation Yrotation Zrotation
				JOINT Neck
				{
					OFFSET -0.418800 17.814194 8.416900
					CHANNELS 3 Xrotation Yrotation Zrotation
					JOINT Head
					{
						OFFSET 0.000000 7.031097 3.806800
						CHANNELS 3 Xrotation Yrotation Zrotation
						JOINT HeadTop_End
						{
							OFFSET 0.000000 24.646606 12.978600
							CHANNELS 3 Xrotation Yrotation Zrotation
							End Site
							{
								OFFSET 0.000000 27.854965 0.000000
							}
						}
					}
				}
				JOINT LeftShoulder
				{
					OFFSET 16.952999 14.495407 -7.737500
					CHANNELS 3 Xrotation Yrotation Zrotation
					JOINT LeftArm
					{
						OFFSET 9.308998 -2.777710 0.208600
						CHANNELS 3 Xrotation Yrotation Zrotation
						JOINT LeftForeArm
						{
							OFFSET 29.972298 0.000000 0.000000
							CHANNELS 3 Xrotation Yrotation Zrotation
							JOINT LeftHand
							{
								OFFSET 26.026505 0.000000 0.000000
								CHANNELS 3 Xrotation Yrotation Zrotation
								JOINT LeftHandThumb1
								{
									OFFSET 12.240501 -7.147949 9.207150
									CHANNELS 3 Xrotation Yrotation Zrotation
									JOINT LeftHandThumb2
									{
										OFFSET 4.138618 -2.389435 2.389433
										CHANNELS 3 Xrotation Yrotation Zrotation
										JOINT LeftHandThumb3
										{
											OFFSET 2.726913 -1.574387 1.574386
											CHANNELS 3 Xrotation Yrotation Zrotation
											JOINT LeftHandThumb4
											{
												OFFSET 3.941010 -2.275345 2.275342
												CHANNELS 3 Xrotation Yrotation Zrotation
												End Site
												{
													OFFSET -0.005798 5.087799 0.009903
												}
											}
										}
									}
								}
								JOINT LeftHandIndex1
								{
									OFFSET 24.424698 -1.985611 5.953459
									CHANNELS 3 Xrotation Yrotation Zrotation
									JOINT LeftHandIndex2
									{
										OFFSET 6.426697 0.000000 0.000000
										CHANNELS 3 Xrotation Yrotation Zrotation
										JOINT LeftHandIndex3
										{
											OFFSET 5.337898 0.000000 0.000000
											CHANNELS 3 Xrotation Yrotation Zrotation
											JOINT LeftHandIndex4
											{
												OFFSET 4.409401 0.000000 0.000000
												CHANNELS 3 Xrotation Yrotation Zrotation
												End Site
												{
													OFFSET 0.000000 4.409363 0.014373
												}
											}
										}
									}
								}
								JOINT LeftHandMiddle1
								{
									OFFSET 23.810104 0.000000 0.000000
									CHANNELS 3 Xrotation Yrotation Zrotation
									JOINT LeftHandMiddle2
									{
										OFFSET 7.176498 0.000000 0.000000
										CHANNELS 3 Xrotation Yrotation Zrotation
										JOINT LeftHandMiddle3
										{
											OFFSET 6.774902 0.000000 0.000000
											CHANNELS 3 Xrotation Yrotation Zrotation
											JOINT LeftHandMiddle4
											{
												OFFSET 5.403328 0.000000 0.000000
												CHANNELS 3 Xrotation Yrotation Zrotation
												End Site
												{
													OFFSET -0.027702 5.403244 0.017414
												}
											}
										}
									}
								}
								JOINT LeftHandRing1
								{
									OFFSET 22.908401 -0.839279 -6.020567
									CHANNELS 3 Xrotation Yrotation Zrotation
									JOINT LeftHandRing2
									{
										OFFSET 6.337502 0.000000 0.000000
										CHANNELS 3 Xrotation Yrotation Zrotation
										JOINT LeftHandRing3
										{
											OFFSET 5.779297 0.000000 0.000000
											CHANNELS 3 Xrotation Yrotation Zrotation
											JOINT LeftHandRing4
											{
												OFFSET 4.965698 0.000000 0.000000
												CHANNELS 3 Xrotation Yrotation Zrotation
												End Site
												{
													OFFSET 0.000000 4.965668 0.016186
												}
											}
										}
									}
								}
								JOINT LeftHandPinky1
								{
									OFFSET 20.037003 -1.530319 -10.950146
									CHANNELS 3 Xrotation Yrotation Zrotation
									JOINT LeftHandPinky2
									{
										OFFSET 5.254700 0.000000 0.000000
										CHANNELS 3 Xrotation Yrotation Zrotation
										JOINT LeftHandPinky3
										{
											OFFSET 4.810204 0.000000 0.000000
											CHANNELS 3 Xrotation Yrotation Zrotation
											JOINT LeftHandPinky4
											{
												OFFSET 3.647202 0.000000 0.000000
												CHANNELS 3 Xrotation Yrotation Zrotation
												End Site
												{
													OFFSET 0.000000 3.647186 0.011889
												}
											}
										}
									}
								}
							}
						}
					}
				}
				JOINT RightShoulder
				{
					OFFSET -15.141001 14.495407 -7.737500
					CHANNELS 3 Xrotation Yrotation Zrotation
					JOINT RightArm
					{
						OFFSET -9.308998 -2.777710 0.208500
						CHANNELS 3 Xrotation Yrotation Zrotation
						JOINT RightForeArm
						{
							OFFSET -29.972300 0.000000 0.000000
							CHANNELS 3 Xrotation Yrotation Zrotation
							JOINT RightHand
							{
								OFFSET -26.026505 0.000000 0.000000
								CHANNELS 3 Xrotation Yrotation Zrotation
								JOINT RightHandThumb1
								{
									OFFSET -12.240601 -7.148026 9.207092
									CHANNELS 3 Xrotation Yrotation Zrotation
									JOINT RightHandThumb2
									{
										OFFSET -4.138618 -2.389435 2.389433
										CHANNELS 3 Xrotation Yrotation Zrotation
										JOINT RightHandThumb3
										{
											OFFSET -2.726974 -1.574417 1.574421
											CHANNELS 3 Xrotation Yrotation Zrotation
											JOINT RightHandThumb4
											{
												OFFSET -3.941010 -2.275345 2.275343
												CHANNELS 3 Xrotation Yrotation Zrotation
												End Site
												{
													OFFSET 0.005814 5.087799 0.009927
												}
											}
										}
									}
								}
								JOINT RightHandIndex1
								{
									OFFSET -24.424698 -1.985657 5.953444
									CHANNELS 3 Xrotation Yrotation Zrotation
									JOINT RightHandIndex2
									{
										OFFSET -6.426697 0.000000 0.000000
										CHANNELS 3 Xrotation Yrotation Zrotation
										JOINT RightHandIndex3
										{
											OFFSET -5.337898 0.000000 0.000000
											CHANNELS 3 Xrotation Yrotation Zrotation
											JOINT RightHandIndex4
											{
												OFFSET -4.409401 0.000000 0.000000
												CHANNELS 3 Xrotation Yrotation Zrotation
												End Site
												{
													OFFSET 0.000000 4.409363 0.014408
												}
											}
										}
									}
								}
								JOINT RightHandMiddle1
								{
									OFFSET -23.810097 0.000000 0.000000
									CHANNELS 3 Xrotation Yrotation Zrotation
									JOINT RightHandMiddle2
									{
										OFFSET -7.176498 0.000000 0.000000
										CHANNELS 3 Xrotation Yrotation Zrotation
										JOINT RightHandMiddle3
										{
											OFFSET -6.774902 0.000000 0.000000
											CHANNELS 3 Xrotation Yrotation Zrotation
											JOINT RightHandMiddle4
											{
												OFFSET -5.403328 0.000000 0.000000
												CHANNELS 3 Xrotation Yrotation Zrotation
												End Site
												{
													OFFSET 0.027702 5.403244 0.017457
												}
											}
										}
									}
								}
								JOINT RightHandRing1
								{
									OFFSET -22.908302 -0.839325 -6.020576
									CHANNELS 3 Xrotation Yrotation Zrotation
									JOINT RightHandRing2
									{
										OFFSET -6.337502 0.000000 0.000000
										CHANNELS 3 Xrotation Yrotation Zrotation
										JOINT RightHandRing3
										{
											OFFSET -5.779297 0.000000 0.000000
											CHANNELS 3 Xrotation Yrotation Zrotation
											JOINT RightHandRing4
											{
												OFFSET -4.965698 0.000000 0.000000
												CHANNELS 3 Xrotation Yrotation Zrotation
												End Site
												{
													OFFSET 0.000000 4.965668 0.016226
												}
											}
										}
									}
								}
								JOINT RightHandPinky1
								{
									OFFSET -20.037003 -1.530334 -10.950259
									CHANNELS 3 Xrotation Yrotation Zrotation
									JOINT RightHandPinky2
									{
										OFFSET -5.254700 0.000000 0.000000
										CHANNELS 3 Xrotation Yrotation Zrotation
										JOINT RightHandPinky3
										{
											OFFSET -4.810204 0.000000 0.000000
											CHANNELS 3 Xrotation Yrotation Zrotation
											JOINT RightHandPinky4
											{
												OFFSET -3.647202 0.000000 0.000000
												CHANNELS 3 Xrotation Yrotation Zrotation
												End Site
												{
													OFFSET 0.000000 3.647186 0.011917
												}
											}
										}
									}
								}
							}
						}
					}
				}
			}
		}
	}
	JOINT LeftUpLeg
	{
		OFFSET 15.427100 -6.655098 0.678600
		CHANNELS 3 Xrotation Yrotation Zrotation
		JOINT LeftLeg
		{
			OFFSET 4.081073 -39.591068 13.024000
			CHANNELS 3 Xrotation Yrotation Zrotation
			JOINT LeftFoot
			{
				OFFSET -4.081074 -37.707932 -15.979700
				CHANNELS 3 Xrotation Yrotation Zrotation
				JOINT LeftToeBase
				{
					OFFSET 5.346399 -15.068900 20.645000
					CHANNELS 3 Xrotation Yrotation Zrotation
					JOINT LeftToe_End
					{
						OFFSET 2.754700 0.931300 11.300900
						CHANNELS 3 Xrotation Yrotation Zrotation
						End Site
						{
							OFFSET 0.000000 11.669021 0.000000
						}
					}
				}
			}
		}
	}
	JOINT RightUpLeg
	{
		OFFSET -15.569500 -6.655098 0.678600
		CHANNELS 3 Xrotation Yrotation Zrotation
		JOINT RightLeg
		{
			OFFSET -4.081825 -39.591045 13.023800
			CHANNELS 3 Xrotation Yrotation Zrotation
			JOINT RightFoot
			{
				OFFSET 4.081824 -37.707954 -15.979600
				CHANNELS 3 Xrotation Yrotation Zrotation
				JOINT RightToeBase
				{
					OFFSET -5.346400 -15.068900 20.645000
					CHANNELS 3 Xrotation Yrotation Zrotation
					JOINT RightToe_End
					{
						OFFSET -2.754700 0.931300 11.300900
						CHANNELS 3 Xrotation Yrotation Zrotation
						End Site
						{
							OFFSET 0.000000 11.669021 0.000000
						}
					}
				}
			}
		}
	}
}
MOTION
Frames: 4
Frame Time: 0.033333
1.315214 90.804512 -1.833204 -16.811032 -39.357206 -8.107325 6.239187 0.200530 -0.719340 15.435229 -0.070848 -0.573734 15.981844 -0.104280 -0.562924 0.951997 7.481075 0.834220 -5.615864 21.621334 11.765429 0.000002 0.000000 0.000000 -37.481814 -4.353768 2.076829 -38.596501 -7.356206 -63.035488 -0.000050 -63.922641 -0.000047 -120.220605 0.931167 31.268131 4.758175 9.693883 3.238258 19.328786 -1.323719 7.606333 -4.542726 -9.616585 1.514082 -0.000001 -0.000002 -0.000000 -0.221652 3.935611 -36.940921 2.936376 5.075614 -60.079505 0.513744 2.400968 -24.152017 0.000001 0.000000 -0.000002 0.403065 5.495946 -52.287574 3.405647 5.317160 -65.257451 0.282043 1.797558 -17.833508 -0.000001 0.000001 0.000002 -0.096740 5.696840 -60.679886 4.058957 5.570779 -72.135294 0.582668 2.548966 -25.748007 0.000001 -0.000000 0.000001 -6.551506 4.538361 -72.370991 3.299624 5.267207 -64.107807 0.172754 1.413597 -13.934103 -0.000000 0.000004 0.000001 -41.179429 -8.595275 -9.910065 -43.958199 59.611227 99.760800 0.000045 98.539617 -0.000056 -53.378789 -17.510450 -29.964655 8.446938 -5.141753 11.049392 21.634527 -18.165016 -18.388351 -0.912879 -49.798667 -32.790171 -0.000002 -0.000001 0.000003 -0.911613 1.580004 12.590162 0.748119 -2.533462 32.898282 0.615643 -2.316061 29.767812 0.000000 0.000000 -0.000000 3.426973 -7.212867 51.311878 6.302941 -4.357278 110.715502 0.248717 -1.503055 18.790281 0.000000 0.000000 0.000000 -3.359687 -2.592128 57.001115 5.448965 -4.589514 99.799452 1.695686 -3.595874 50.482492 0.000000 -0.000000 0.000001 -4.009303 -3.286273 64.514586 4.060485 -4.618859 82.630911 2.316967 -4.027636 59.807616 0.000000 -0.000001 0.000005 -18.625931 44.098604 26.955552 22.293369 -0.708245 -1.293178 1.982227 2.359522 -3.972966 -0.000095 0.000003 -0.000005 0.000000 -0.000000 0.000000 8.473703 5.429920 -8.447941 27.456169 -0.544985 1.469344 -21.033166 -17.482706 5.285003 -0.126067 -0.000015 -0.000000 -0.000000 -0.000002 0.000000 
1.312059 90.806076 -1.822216 -16.798446 -39.365273 -8.116031 6.243839 0.196290 -0.719298 15.421020 -0.070790 -0.574047 15.957115 -0.104182 -0.562915 0.932287 7.480991 0.834123 -5.674071 21.621181 11.767870 0.000000 -0.000001 -0.000002 -37.490338 -4.370256 2.042741 -38.588035 -7.326395 -63.007156 0.000045 -63.962481 0.000054 -120.172179 0.950084 31.314420 4.761454 9.689877 3.236772 19.328356 -1.323241 7.606485 -4.543172 -9.617096 1.515492 -0.000001 0.000000 -0.000001 -0.221220 3.936072 -36.939193 2.936282 5.075555 -60.078467 0.513774 2.401027 -24.152701 0.000002 -0.000000 0.000002 0.404343 5.497272 -52.293936 3.406169 5.317395 -65.262820 0.282062 1.797595 -17.834010 -0.000002 -0.000004 0.000002 -0.096799 5.696735 -60.678881 4.058984 5.570783 -72.135486 0.582667 2.548966 -25.748003 0.000001 -0.000003 -0.000000 -6.552794 4.539190 -72.377015 3.299627 5.267208 -64.107800 0.172789 1.413781 -13.935954 -0.000003 0.000000 -0.000001 -41.179497 -8.591459 -9.913871 -43.958630 59.621862 99.770062 0.000135 98.539399 -0.000131 -53.388300 -17.474646 -29.971925 8.441831 -5.124262 11.048453 21.635024 -18.165013 -18.386883 -0.913871 -49.798568 -32.791383 0.000001 0.000000 0.000000 -0.912490 1.580469 12.599010 0.748119 -2.533462 32.898286 0.615642 -2.316060 29.767815 -0.000000 0.000000 -0.000001 3.423372 -7.210445 51.302394 6.303181 -4.357170 110.718616 0.248717 -1.503055 18.790276 -0.000000 -0.000000 0.000000 -3.359594 -2.592651 57.004407 5.448944 -4.589517 99.799186 1.695661 -3.595882 50.482198 -0.000000 -0.000000 0.000000 -4.009110 -3.287370 64.521396 4.060268 -4.618851 82.628132 2.316786 -4.027510 59.804884 0.000000 -0.000000 0.000001 -18.655028 44.106910 26.991898 22.306911 -0.680203 -1.286108 1.967267 2.320242 -3.985810 -0.000004 -0.000004 0.000001 0.000000 0.000000 0.000000 8.474377 5.433882 -8.440049 27.439822 -0.553676 1.473535 -21.028184 -17.469349 5.290598 -0.094813 0.000005 0.000001 -0.000000 -0.000001 -0.000000 
1.309793 90.804703 -1.810881 -16.788835 -39.378547 -8.129357 6.245093 0.192670 -0.719250 15.407264 -0.070787 -0.574579 15.932463 -0.104177 -0.563105 0.916066 7.480876 0.834053 -5.729310 21.620856 11.770177 0.000001 0.000000 -0.000000 -37.490379 -4.406739 2.039841 -38.555117 -7.277621 -62.968306 0.000098 -64.019213 0.000085 -120.148751 0.952582 31.350551 4.765030 9.685729 3.234607 19.328465 -1.323305 7.606724 -4.543640 -9.617599 1.516895 0.000001 -0.000000 -0.000000 -0.220767 3.936527 -36.937229 2.936180 5.075493 -60.077299 0.513801 2.401090 -24.153371 0.000002 -0.000001 -0.000002 0.405676 5.498704 -52.301378 3.406622 5.317590 -65.267737 0.282076 1.797667 -17.834496 -0.000000 0.000003 -0.000001 -0.095053 5.699866 -60.708832 4.058975 5.570786 -72.135547 0.582662 2.548964 -25.748008 0.000001 -0.000001 0.000002 -6.554964 4.542022 -72.393988 3.299632 5.267208 -64.107807 0.172881 1.414143 -13.939556 -0.000002 -0.000003 -0.000005 -41.179118 -8.588953 -9.923975 -43.969541 59.636253 99.791154 0.000081 98.536154 -0.000047 -53.401455 -17.430436 -29.979340 8.435676 -5.103175 11.047544 21.640840 -18.159024 -18.386463 -0.919690 -49.797936 -32.798422 0.000000 0.000002 0.000004 -0.912214 1.578616 12.600500 0.748119 -2.533462 32.898286 0.615643 -2.316061 29.767819 0.000000 0.000000 0.000000 3.420019 -7.207082 51.317131 6.303049 -4.357223 110.716772 0.248717 -1.503056 18.790279 -0.000000 0.000000 -0.000000 -3.359543 -2.592006 56.999465 5.449051 -4.589488 99.800518 1.695764 -3.595923 50.483581 0.000000 0.000001 -0.000001 -4.008974 -3.287833 64.524217 4.060022 -4.618813 82.625195 2.316576 -4.027386 59.801906 -0.000000 0.000001 0.000002 -18.687876 44.112316 27.033680 22.324642 -0.689741 -1.293560 1.950577 2.325107 -3.986681 -0.000087 -0.000003 0.000002 -0.000000 -0.000000 -0.000000 8.468877 5.433016 -8.424388 27.428909 -0.531884 1.474836 -21.028037 -17.474452 5.280927 -0.092808 -0.000012 0.000002 -0.000000 -0.000002 -0.000000 
1.307892 90.804604 -1.799948 -16.779082 -39.388413 -8.142404 6.243734 0.189785 -0.719706 15.394107 -0.070859 -0.575307 15.910116 -0.104389 -0.563841 0.901131 7.480757 0.833983 -5.783727 21.620443 11.772409 -0.000000 0.000000 0.000000 -37.487271 -4.432897 2.047028 -38.530436 -7.243270 -62.941402 -0.000058 -64.060747 -0.000061 -120.131648 0.954229 31.377619 4.768888 9.681484 3.231799 19.329087 -1.323935 7.607061 -4.544090 -9.618100 1.518334 0.000002 0.000000 -0.000001 -0.220306 3.936988 -36.935098 2.936065 5.075418 -60.075974 0.513831 2.401154 -24.154035 -0.000000 0.000001 -0.000002 0.407076 5.500238 -52.309847 3.407032 5.317785 -65.272156 0.282099 1.797706 -17.834995 -0.000003 -0.000002 0.000001 -0.094311 5.701205 -60.721488 4.058982 5.570783 -72.135561 0.582667 2.548965 -25.748003 0.000002 -0.000000 0.000001 -6.557346 4.542493 -72.399855 3.299629 5.267206 -64.107800 0.172887 1.414164 -13.939758 -0.000001 -0.000004 -0.000002 -41.179193 -8.585046 -9.923635 -43.965808 59.649319 99.799009 0.000062 98.535949 -0.000074 -53.412848 -17.393903 -29.988728 8.428617 -5.078632 11.046905 21.648097 -18.151351 -18.386475 -0.925393 -49.797290 -32.805347 0.000001 0.000001 0.000001 -0.911235 1.576513 12.594431 0.748119 -2.533462 32.898282 0.615643 -2.316061 29.767819 0.000000 0.000000 -0.000001 3.418234 -7.205480 51.321331 6.303030 -4.357258 110.716506 0.248717 -1.503055 18.790276 0.000000 0.000000 0.000000 -3.359442 -2.591517 56.995238 5.449473 -4.589415 99.805743 1.696085 -3.596207 50.488803 0.000000 0.000001 -0.000002 -4.008813 -3.288172 64.525828 4.059775 -4.618787 82.622053 2.316362 -4.027256 59.798777 0.000000 -0.000001 0.000004 -18.713858 44.105793 27.059340 22.343171 -0.692024 -1.284378 1.934095 2.335224 -3.998076 -0.000090 -0.000004 -0.000003 -0.000000 0.000000 -0.000000 8.467939 5.432608 -8.416277 27.412727 -0.519988 1.487067 -21.025573 -17.470010 5.272421 -0.096635 0.000008 -0.000002 0.000000 -0.000000 0.000000 
